<?xml version="1.0" standalone="no"?>
<!DOCTYPE svg PUBLIC "-//W3C//DTD SVG 20010904//EN"
 "http://www.w3.org/TR/2001/REC-SVG-20010904/DTD/svg10.dtd">
<svg version="1.0" xmlns="http://www.w3.org/2000/svg"
 width="225.000000pt" height="225.000000pt" viewBox="0 0 225.000000 225.000000"
 preserveAspectRatio="xMidYMid meet">
<metadata>
Created by potrace 1.14, written by Peter Selinger 2001-2017
</metadata>
<g transform="translate(0.000000,225.000000) scale(0.100000,-0.100000)"
fill="#000000" stroke="none">
<path d="M0 1125 l0 -1125 1125 0 1125 0 0 1125 0 1125 -1125 0 -1125 0 0
-1125z m1773 305 l37 0 0 -157 c0 -87 4 -163 8 -169 4 -6 15 -13 25 -17 11 -4
17 -17 17 -36 0 -26 -4 -31 -33 -36 -40 -8 -82 7 -96 34 -6 11 -11 82 -11 165
l0 146 -33 0 c-55 0 -81 -46 -29 -52 24 -3 27 -7 27 -38 0 -31 -3 -35 -27 -38
l-28 -3 0 -105 0 -104 -44 0 -44 0 -7 83 c-4 45 -5 91 -3 102 2 14 -3 21 -19
23 -19 3 -23 10 -23 38 0 28 5 36 25 44 17 6 25 17 25 33 0 59 65 100 145 92
28 -3 67 -5 88 -5z m-1503 -175 c0 -155 1 -165 19 -165 11 0 21 -9 25 -22 11
-44 8 -48 -42 -48 -82 0 -87 11 -90 209 -1 91 0 172 3 179 2 7 22 12 45 12
l40 0 0 -165z m1869 138 c-1 -16 -18 -48 -18 -36 -1 6 -4 18 -7 27 -4 11 -1
16 10 16 9 0 16 -3 15 -7z m48 -2 c10 9 13 6 13 -13 0 -18 -6 -24 -25 -26 -21
-1 -25 3 -25 25 0 21 3 24 12 15 8 -8 15 -9 25 -1z m-1627 -106 c18 -11 40
-70 40 -110 l0 -35 -79 0 c-44 0 -82 -4 -85 -9 -3 -4 1 -16 8 -26 11 -15 26
-18 80 -18 66 2 66 1 66 -27 0 -33 -17 -40 -104 -40 -48 0 -65 5 -92 25 -90
69 -57 236 52 254 39 7 90 1 114 -14z m864 -19 c17 -22 21 -45 24 -137 l4
-109 -46 0 -46 0 0 94 c0 96 -11 126 -45 126 -34 0 -45 -30 -45 -126 l0 -95
-41 3 -41 3 -2 137 -1 138 42 0 c24 0 43 -5 46 -12 3 -10 7 -10 18 -1 37 29
103 19 133 -21z m532 32 c6 -4 19 -43 29 -88 10 -44 22 -80 26 -80 4 0 15 34
25 75 10 41 21 80 24 86 4 6 26 13 49 16 31 4 41 2 41 -8 0 -8 -28 -99 -63
-204 l-63 -190 -48 -3 c-42 -3 -47 -1 -42 15 29 104 31 88 -22 240 -27 78 -47
144 -45 147 7 6 76 2 89 -6z m-1107 -14 c38 -23 51 -65 51 -172 l0 -92 -44 0
c-24 0 -46 5 -48 11 -3 9 -9 9 -25 0 -12 -6 -40 -11 -62 -11 -47 0 -71 26 -71
75 0 49 18 64 93 77 70 11 81 23 51 53 -13 13 -27 15 -65 10 -27 -4 -49 -3
-49 2 0 4 -3 18 -6 30 -7 25 6 30 89 32 38 1 69 -5 86 -15z m204 4 c4 -10 7
-10 18 0 7 6 26 12 41 12 25 0 28 -3 28 -35 0 -30 -3 -35 -23 -35 -12 0 -33
-7 -45 -16 -21 -15 -23 -23 -21 -102 l2 -87 -41 -3 -42 -3 0 140 0 141 39 0
c22 0 41 -5 44 -12z m667 -338 c0 -5 -4 -10 -10 -10 -5 0 -10 -7 -10 -15 0 -8
5 -15 12 -15 9 0 9 -3 0 -12 -7 -7 -12 -31 -12 -55 0 -62 -20 -53 -21 10 -2
71 1 91 15 99 16 11 26 10 26 -2z m-1498 -67 c3 -66 4 -68 30 -71 31 -4 35 7
41 93 2 28 3 16 3 -25 -1 -72 -2 -75 -28 -84 -22 -8 -32 -6 -48 9 -16 15 -20
30 -20 82 0 84 18 81 22 -4z m438 27 l0 -41 30 22 c16 13 32 20 36 17 3 -4 -6
-14 -20 -23 -33 -22 -33 -40 -1 -61 14 -9 23 -19 21 -22 -3 -2 -17 3 -30 12
-31 20 -36 20 -36 1 0 -8 -4 -15 -8 -15 -5 0 -9 34 -10 75 -1 44 2 75 8 75 6
0 10 -18 10 -40z m110 36 c0 -3 -4 -8 -10 -11 -5 -3 -10 -1 -10 4 0 6 5 11 10
11 6 0 10 -2 10 -4z m40 -71 c0 -43 -4 -75 -10 -75 -6 0 -10 32 -10 75 0 43 4
75 10 75 6 0 10 -32 10 -75z m37 -37 c-2 -24 -4 -7 -4 37 0 44 2 63 4 43 2
-21 2 -57 0 -80z m121 87 c6 -14 15 -25 20 -25 5 0 15 11 22 25 13 24 30 34
30 18 0 -5 -9 -23 -20 -41 -11 -18 -20 -48 -20 -67 0 -19 -4 -35 -10 -35 -5 0
-10 16 -10 35 0 21 -11 52 -25 75 -18 28 -21 40 -12 40 8 0 19 -11 25 -25z
m682 -49 c0 -41 -4 -78 -10 -81 -6 -4 -10 23 -10 74 0 47 4 81 10 81 6 0 10
-31 10 -74z m-1208 17 c24 -21 23 -58 -2 -83 -23 -23 -33 -24 -61 -10 -16 9
-19 7 -19 -14 0 -14 -4 -28 -10 -31 -6 -4 -10 23 -10 72 l0 79 42 1 c27 2 49
-4 60 -14z m168 6 c0 -6 -7 -9 -15 -6 -27 11 -27 -14 -1 -38 23 -21 25 -28 16
-46 -12 -21 -40 -23 -47 -2 -3 7 3 9 16 6 28 -7 28 22 1 37 -19 10 -27 40 -13
53 11 11 43 8 43 -4z m151 -47 c-4 -67 -11 -66 -11 3 0 32 3 55 7 51 4 -4 6
-28 4 -54z m406 46 c21 -27 21 -58 1 -83 -24 -30 -57 -32 -86 -5 -26 24 -28
47 -6 78 17 25 75 31 91 10z m65 -43 c3 -35 6 -40 28 -40 23 0 25 4 28 48 4
59 22 62 22 3 0 -65 -33 -91 -81 -66 -15 9 -19 22 -19 62 0 61 17 55 22 -7z
m144 40 c-11 -8 -20 -31 -23 -59 -3 -25 -10 -43 -15 -40 -7 5 -7 43 1 104 1 3
13 7 29 8 25 1 26 1 8 -13z m90 3 c5 -8 0 -9 -14 -6 -34 9 -38 -12 -7 -36 24
-20 26 -25 16 -45 -14 -25 -51 -26 -59 -2 -3 10 0 12 13 8 31 -13 37 5 11 32
-17 18 -24 34 -20 44 7 19 49 23 60 5z m128 -10 c21 -30 12 -38 -40 -38 -38 0
-45 -3 -42 -17 4 -22 44 -29 64 -12 8 6 18 9 22 5 10 -11 -28 -36 -54 -36 -49
0 -75 67 -42 108 17 21 75 15 92 -10z m-1066 -35 c-10 -2 -26 -2 -35 0 -10 3
-2 5 17 5 19 0 27 -2 18 -5z"/>
<path d="M446 1228 c-18 -26 -7 -38 37 -38 32 0 45 23 27 45 -18 22 -46 18
-64 -7z"/>
<path d="M753 1123 c-29 -5 -31 -39 -3 -46 35 -9 60 3 60 29 0 24 -7 27 -57
17z"/>
<path d="M376 887 c-12 -9 -17 -23 -14 -42 3 -27 7 -30 38 -30 31 0 35 3 38
30 3 26 -17 55 -38 55 -3 0 -14 -6 -24 -13z"/>
<path d="M1095 880 c-38 -42 19 -94 59 -54 20 19 20 24 0 52 -19 27 -36 28
-59 2z"/>
<path d="M1528 889 c-28 -16 -21 -26 15 -23 17 1 34 3 36 3 6 2 -21 31 -28 31
-3 0 -14 -5 -23 -11z"/>
</g>
</svg>
